<svg id="Layer_1" data-name="Layer 1" xmlns="http://www.w3.org/2000/svg" viewBox="0 0 387.62 69.04"><defs><style>.cls-1{fill:#fff;}.cls-2{fill:red;}</style></defs><path class="cls-1" d="M382.72,99V46.57h-9.86V39.3h28.72v7.27h-9.86V99Z" transform="translate(-49.24 -34.48)"/><path class="cls-1" d="M404.75,39.3h9.57l3.32,26.86c1,7.77,1.76,15.83,2.84,24.58h.79c1.08-9.25,1.87-16.66,2.85-24.58l3.24-26.86h9.5L427.14,99H414.76Z" transform="translate(-49.24 -34.48)"/><path class="cls-1" d="M167,99V79.76L155.91,39.3h9l3.88,18.22c.94,4.25,1.88,8.78,2.52,12.38h.44c.64-3.6,1.58-8.13,2.52-12.31l4-18.29h9L176.07,79.76V99Z" transform="translate(-49.24 -34.48)"/><path class="cls-1" d="M212.06,74.29v5.83c0,13.9-4.53,19.58-13.24,19.58-9.29,0-13.25-5.83-13.25-19.58V74.29C185.57,60,190,54.71,199,54.71,207.75,54.71,212.06,60.25,212.06,74.29Zm-8.81-4c0-7.7-1.55-9.57-4.43-9.57s-4.43,1.87-4.43,9.57V84c0,7.92,1.69,9.72,4.43,9.72s4.43-1.8,4.43-9.72Z" transform="translate(-49.24 -34.48)"/><path class="cls-1" d="M218.19,87.83V55.57h8.49V87.39c0,4.61,1.08,5.91,3.53,5.91,1.73,0,3.53-.94,4.82-3.24V55.57h8.5V99h-6.41l-1.29-6.11h-.22c-2.23,4.75-5.69,6.47-9.72,6.47C221,99.34,218.19,96,218.19,87.83Z" transform="translate(-49.24 -34.48)"/><path class="cls-1" d="M252.75,99V46.57h-9.87V39.3h28.73v7.27h-9.86V99Z" transform="translate(-49.24 -34.48)"/><path class="cls-1" d="M270.24,87.83V55.57h8.5V87.39c0,4.61,1.08,5.91,3.53,5.91,1.72,0,3.52-.94,4.82-3.24V55.57h8.5V99h-6.41l-1.3-6.11h-.21c-2.24,4.75-5.69,6.47-9.72,6.47C273.05,99.34,270.24,96,270.24,87.83Z" transform="translate(-49.24 -34.48)"/><path class="cls-1" d="M330,73.86v6.62c0,13-3,18.86-9.36,18.86A9.4,9.4,0,0,1,312,94.45h-.43L310.53,99h-7.35V37h8.5V49.38c0,3.31-.07,8.28-.15,12h.36c2.52-5,5.76-6.55,9.36-6.55C327.52,54.85,330,59.53,330,73.86Zm-9,.72c0-10.3-1.23-13.54-4.18-13.54-2.23,0-4.46,1.8-5.11,4.9V90.71a5.11,5.11,0,0,0,4.53,2.59c3.17,0,4.76-3,4.76-13.39Z" transform="translate(-49.24 -34.48)"/><path class="cls-1" d="M360.56,80.12H344.08v4.32c0,6.77.86,9.29,4.17,9.29s4.39-2.27,4.47-7.45l7.56.43c.64,8.71-4.54,12.92-12.24,12.92-9.87,0-12.67-6.62-12.67-17.78V73.72c0-12.82,3.67-18.87,12.95-18.87S360.56,60,360.56,73.28Zm-16.48-9.86v4.9h8.13v-4.9c0-7.49-.93-9.36-4.1-9.36S344.08,62.84,344.08,70.26Z" transform="translate(-49.24 -34.48)"/><path class="cls-2" d="M60,101.43a12.7,12.7,0,0,1-8.78-8.71c-2-7.7-2-23.76-2-23.76s0-16,2-23.68A12.57,12.57,0,0,1,60,36.57c7.63-2.09,38.44-2.09,38.44-2.09s30.89,0,38.52,2.09a12.24,12.24,0,0,1,8.71,8.71C147.8,52.91,147.8,69,147.8,69s0,16.06-2.09,23.76a12.36,12.36,0,0,1-8.71,8.71c-7.63,2.09-38.52,2.09-38.52,2.09S67.67,103.52,60,101.43ZM88.69,83.79,114.25,69,88.69,54.21Z" transform="translate(-49.24 -34.48)"/><polygon class="cls-1" points="39.45 49.31 65.01 34.48 39.45 19.73 39.45 49.31"/></svg>